<mxfile host="app.diagrams.net" modified="2022-09-05T08:54:16.283Z" agent="5.0 (Macintosh; Intel Mac OS X 10_15_7) AppleWebKit/537.36 (KHTML, like Gecko) Chrome/104.0.0.0 Safari/537.36" etag="kX34B9hOPVUvEDkJ8OaJ" version="20.2.8" type="github">
  <diagram id="pwYuRKHOuEpNASTx3KHh" name="หน้า-1">
    <mxGraphModel dx="1584" dy="819" grid="1" gridSize="10" guides="1" tooltips="1" connect="1" arrows="1" fold="1" page="1" pageScale="1" pageWidth="827" pageHeight="1169" math="0" shadow="0">
      <root>
        <mxCell id="0" />
        <mxCell id="1" parent="0" />
        <mxCell id="Twkg1_KuKJyr9_LMZd9x-3" value="เริ่มต้น" style="ellipse;whiteSpace=wrap;html=1;rounded=1;glass=0;strokeWidth=1;shadow=0;" parent="1" vertex="1">
          <mxGeometry x="370.9983870967742" y="27.692307692307693" width="84.17032258064516" height="30.76923076923077" as="geometry" />
        </mxCell>
        <mxCell id="Twkg1_KuKJyr9_LMZd9x-5" value="&lt;span style=&quot;color: rgb(0, 0, 0); font-family: Helvetica; font-size: 12px; font-style: normal; font-variant-ligatures: normal; font-variant-caps: normal; font-weight: 400; letter-spacing: normal; orphans: 2; text-align: center; text-indent: 0px; text-transform: none; widows: 2; word-spacing: 0px; -webkit-text-stroke-width: 0px; background-color: rgb(248, 249, 250); text-decoration-thickness: initial; text-decoration-style: initial; text-decoration-color: initial; float: none; display: inline !important;&quot;&gt;ดึงข้อมูลจาก Table&lt;/span&gt;&lt;br style=&quot;color: rgb(0, 0, 0); font-family: Helvetica; font-size: 12px; font-style: normal; font-variant-ligatures: normal; font-variant-caps: normal; font-weight: 400; letter-spacing: normal; orphans: 2; text-align: center; text-indent: 0px; text-transform: none; widows: 2; word-spacing: 0px; -webkit-text-stroke-width: 0px; background-color: rgb(248, 249, 250); text-decoration-thickness: initial; text-decoration-style: initial; text-decoration-color: initial;&quot;&gt;Agenda" style="rounded=1;whiteSpace=wrap;html=1;" parent="1" vertex="1">
          <mxGeometry x="356.96999999999997" y="90" width="112.22709677419354" height="46.15384615384615" as="geometry" />
        </mxCell>
        <mxCell id="Twkg1_KuKJyr9_LMZd9x-6" style="edgeStyle=orthogonalEdgeStyle;rounded=0;orthogonalLoop=1;jettySize=auto;html=1;entryX=0.5;entryY=0;entryDx=0;entryDy=0;" parent="1" source="Twkg1_KuKJyr9_LMZd9x-3" target="Twkg1_KuKJyr9_LMZd9x-5" edge="1">
          <mxGeometry relative="1" as="geometry" />
        </mxCell>
        <mxCell id="Twkg1_KuKJyr9_LMZd9x-9" style="edgeStyle=orthogonalEdgeStyle;rounded=0;orthogonalLoop=1;jettySize=auto;html=1;entryX=1;entryY=0.5;entryDx=0;entryDy=0;endArrow=classic;endFill=1;" parent="1" source="Twkg1_KuKJyr9_LMZd9x-11" target="Twkg1_KuKJyr9_LMZd9x-7" edge="1">
          <mxGeometry relative="1" as="geometry" />
        </mxCell>
        <mxCell id="Twkg1_KuKJyr9_LMZd9x-12" value="" style="edgeStyle=orthogonalEdgeStyle;rounded=0;orthogonalLoop=1;jettySize=auto;html=1;endArrow=classic;endFill=1;" parent="1" source="Twkg1_KuKJyr9_LMZd9x-5" target="Twkg1_KuKJyr9_LMZd9x-11" edge="1">
          <mxGeometry relative="1" as="geometry" />
        </mxCell>
        <mxCell id="Twkg1_KuKJyr9_LMZd9x-16" value="" style="edgeStyle=orthogonalEdgeStyle;rounded=0;orthogonalLoop=1;jettySize=auto;html=1;endArrow=block;endFill=0;" parent="1" source="Twkg1_KuKJyr9_LMZd9x-8" target="Twkg1_KuKJyr9_LMZd9x-15" edge="1">
          <mxGeometry relative="1" as="geometry" />
        </mxCell>
        <mxCell id="FiQog4EpSrTWFsyEuaa1-2" value="" style="group" vertex="1" connectable="0" parent="1">
          <mxGeometry x="356.97" y="160.00384615384618" width="163.52258064516127" height="160.76923076923072" as="geometry" />
        </mxCell>
        <mxCell id="Twkg1_KuKJyr9_LMZd9x-8" value="ตรวจสอบข้อมูล" style="whiteSpace=wrap;html=1;rounded=1;" parent="FiQog4EpSrTWFsyEuaa1-2" vertex="1">
          <mxGeometry y="114.61538461538458" width="112.22709677419354" height="46.15384615384615" as="geometry" />
        </mxCell>
        <mxCell id="Twkg1_KuKJyr9_LMZd9x-10" value="" style="edgeStyle=orthogonalEdgeStyle;rounded=0;orthogonalLoop=1;jettySize=auto;html=1;endArrow=classic;endFill=1;" parent="FiQog4EpSrTWFsyEuaa1-2" source="Twkg1_KuKJyr9_LMZd9x-11" target="Twkg1_KuKJyr9_LMZd9x-8" edge="1">
          <mxGeometry relative="1" as="geometry" />
        </mxCell>
        <mxCell id="Twkg1_KuKJyr9_LMZd9x-11" value="ดึงข้อมูล" style="rhombus;whiteSpace=wrap;html=1;rounded=1;" parent="FiQog4EpSrTWFsyEuaa1-2" vertex="1">
          <mxGeometry x="18.704516129032257" y="3.846153846153811" width="74.81806451612903" height="61.53846153846154" as="geometry" />
        </mxCell>
        <mxCell id="Twkg1_KuKJyr9_LMZd9x-13" value="ไม่สำเร็จ" style="text;html=1;align=center;verticalAlign=middle;resizable=0;points=[];autosize=1;strokeColor=none;fillColor=none;" parent="FiQog4EpSrTWFsyEuaa1-2" vertex="1">
          <mxGeometry x="-36.96741935483871" width="70" height="30" as="geometry" />
        </mxCell>
        <mxCell id="Twkg1_KuKJyr9_LMZd9x-14" value="สำเร็จ" style="text;html=1;align=center;verticalAlign=middle;resizable=0;points=[];autosize=1;strokeColor=none;fillColor=none;" parent="FiQog4EpSrTWFsyEuaa1-2" vertex="1">
          <mxGeometry x="65.4658064516129" y="80.76923076923072" width="50" height="30" as="geometry" />
        </mxCell>
        <mxCell id="Twkg1_KuKJyr9_LMZd9x-7" value="ส่ง Error status 500" style="whiteSpace=wrap;html=1;rounded=1;" parent="1" vertex="1">
          <mxGeometry x="200.0016129032258" y="171.5423076923077" width="112.22709677419354" height="46.15384615384615" as="geometry" />
        </mxCell>
        <mxCell id="Twkg1_KuKJyr9_LMZd9x-25" style="edgeStyle=orthogonalEdgeStyle;rounded=0;orthogonalLoop=1;jettySize=auto;html=1;entryX=0;entryY=0.5;entryDx=0;entryDy=0;endArrow=block;endFill=0;" parent="1" source="Twkg1_KuKJyr9_LMZd9x-7" target="Twkg1_KuKJyr9_LMZd9x-24" edge="1">
          <mxGeometry relative="1" as="geometry">
            <Array as="points">
              <mxPoint x="180" y="195" />
              <mxPoint x="180" y="640" />
              <mxPoint x="402" y="640" />
            </Array>
          </mxGeometry>
        </mxCell>
        <mxCell id="Twkg1_KuKJyr9_LMZd9x-26" style="edgeStyle=orthogonalEdgeStyle;rounded=0;orthogonalLoop=1;jettySize=auto;html=1;entryX=1;entryY=0.5;entryDx=0;entryDy=0;endArrow=block;endFill=0;" parent="1" source="Twkg1_KuKJyr9_LMZd9x-17" target="Twkg1_KuKJyr9_LMZd9x-24" edge="1">
          <mxGeometry relative="1" as="geometry">
            <Array as="points">
              <mxPoint x="720" y="379" />
              <mxPoint x="720" y="640" />
              <mxPoint x="424" y="640" />
            </Array>
          </mxGeometry>
        </mxCell>
        <mxCell id="Twkg1_KuKJyr9_LMZd9x-27" style="edgeStyle=orthogonalEdgeStyle;rounded=0;orthogonalLoop=1;jettySize=auto;html=1;endArrow=block;endFill=0;entryX=0.5;entryY=0;entryDx=0;entryDy=0;" parent="1" source="Twkg1_KuKJyr9_LMZd9x-21" target="Twkg1_KuKJyr9_LMZd9x-24" edge="1">
          <mxGeometry relative="1" as="geometry">
            <Array as="points">
              <mxPoint x="413" y="561.0761538461538" />
              <mxPoint x="413" y="630" />
            </Array>
          </mxGeometry>
        </mxCell>
        <mxCell id="Twkg1_KuKJyr9_LMZd9x-19" value="ไม่พบข้อมูล" style="text;html=1;align=center;verticalAlign=middle;resizable=0;points=[];autosize=1;strokeColor=none;fillColor=none;" parent="1" vertex="1">
          <mxGeometry x="450.81258064516135" y="339.9961538461539" width="80" height="30" as="geometry" />
        </mxCell>
        <mxCell id="Twkg1_KuKJyr9_LMZd9x-15" value="มีข้อมูล" style="rhombus;whiteSpace=wrap;html=1;rounded=1;" parent="1" vertex="1">
          <mxGeometry x="375.9993548387097" y="348.4569230769231" width="74.81806451612903" height="61.53846153846154" as="geometry" />
        </mxCell>
        <mxCell id="Twkg1_KuKJyr9_LMZd9x-17" value="ส่ง Error status 404" style="whiteSpace=wrap;html=1;rounded=1;" parent="1" vertex="1">
          <mxGeometry x="580.0016129032258" y="356.1492307692307" width="112.22709677419354" height="46.15384615384615" as="geometry" />
        </mxCell>
        <mxCell id="Twkg1_KuKJyr9_LMZd9x-18" value="" style="edgeStyle=orthogonalEdgeStyle;rounded=0;orthogonalLoop=1;jettySize=auto;html=1;endArrow=block;endFill=0;exitX=1;exitY=0.5;exitDx=0;exitDy=0;entryX=0;entryY=0.5;entryDx=0;entryDy=0;" parent="1" source="Twkg1_KuKJyr9_LMZd9x-15" target="Twkg1_KuKJyr9_LMZd9x-17" edge="1">
          <mxGeometry relative="1" as="geometry">
            <Array as="points">
              <mxPoint x="490" y="379" />
              <mxPoint x="570" y="380" />
            </Array>
          </mxGeometry>
        </mxCell>
        <mxCell id="Twkg1_KuKJyr9_LMZd9x-20" value="พบข้อมูล" style="text;html=1;align=center;verticalAlign=middle;resizable=0;points=[];autosize=1;strokeColor=none;fillColor=none;" parent="1" vertex="1">
          <mxGeometry x="343.99993548387096" y="399.9961538461539" width="70" height="30" as="geometry" />
        </mxCell>
        <mxCell id="Twkg1_KuKJyr9_LMZd9x-21" value="ส่งกลับข้อมูลวาระการประชุมทั้งหมด" style="whiteSpace=wrap;html=1;rounded=1;" parent="1" vertex="1">
          <mxGeometry x="357.0032258064516" y="537.9992307692308" width="112.22709677419354" height="46.15384615384615" as="geometry" />
        </mxCell>
        <mxCell id="Twkg1_KuKJyr9_LMZd9x-30" style="edgeStyle=orthogonalEdgeStyle;rounded=0;orthogonalLoop=1;jettySize=auto;html=1;" parent="1" source="Twkg1_KuKJyr9_LMZd9x-28" target="Twkg1_KuKJyr9_LMZd9x-21" edge="1">
          <mxGeometry relative="1" as="geometry" />
        </mxCell>
        <mxCell id="Twkg1_KuKJyr9_LMZd9x-28" value="เรียงลำดับข้อมูลวาระด้วย AgendaSeq จากน้อยไปมาก" style="whiteSpace=wrap;html=1;rounded=1;" parent="1" vertex="1">
          <mxGeometry x="357.0032258064516" y="459.99923076923085" width="112.22709677419354" height="46.15384615384615" as="geometry" />
        </mxCell>
        <mxCell id="Twkg1_KuKJyr9_LMZd9x-29" style="edgeStyle=orthogonalEdgeStyle;rounded=0;orthogonalLoop=1;jettySize=auto;html=1;entryX=0.5;entryY=0;entryDx=0;entryDy=0;" parent="1" source="Twkg1_KuKJyr9_LMZd9x-15" target="Twkg1_KuKJyr9_LMZd9x-28" edge="1">
          <mxGeometry relative="1" as="geometry">
            <Array as="points">
              <mxPoint x="413" y="435" />
              <mxPoint x="413" y="435" />
            </Array>
          </mxGeometry>
        </mxCell>
        <mxCell id="Twkg1_KuKJyr9_LMZd9x-4" value="สิ้นสุด" style="ellipse;whiteSpace=wrap;html=1;rounded=1;glass=0;strokeWidth=1;shadow=0;" parent="1" vertex="1">
          <mxGeometry x="373.335806451613" y="680" width="79.4941935483871" height="30.76923076923077" as="geometry" />
        </mxCell>
        <mxCell id="Twkg1_KuKJyr9_LMZd9x-23" value="" style="edgeStyle=orthogonalEdgeStyle;rounded=0;orthogonalLoop=1;jettySize=auto;html=1;endArrow=block;endFill=0;" parent="1" source="Twkg1_KuKJyr9_LMZd9x-24" target="Twkg1_KuKJyr9_LMZd9x-4" edge="1">
          <mxGeometry relative="1" as="geometry" />
        </mxCell>
        <mxCell id="Twkg1_KuKJyr9_LMZd9x-24" value="" style="ellipse;whiteSpace=wrap;html=1;aspect=fixed;" parent="1" vertex="1">
          <mxGeometry x="402.32709677419354" y="629.9961538461538" width="21.58213399503722" height="21.58213399503722" as="geometry" />
        </mxCell>
      </root>
    </mxGraphModel>
  </diagram>
</mxfile>
